<?xml version="1.0" encoding="utf-8" standalone="no"?>
<!DOCTYPE svg PUBLIC "-//W3C//DTD SVG 1.1//EN"
  "http://www.w3.org/Graphics/SVG/1.1/DTD/svg11.dtd">
<svg xmlns:xlink="http://www.w3.org/1999/xlink" width="728.39952pt" height="429.047111pt" viewBox="0 0 728.39952 429.047111" xmlns="http://www.w3.org/2000/svg" version="1.1">
 <metadata>
  <rdf:RDF xmlns:dc="http://purl.org/dc/elements/1.1/" xmlns:cc="http://creativecommons.org/ns#" xmlns:rdf="http://www.w3.org/1999/02/22-rdf-syntax-ns#">
   <cc:Work>
    <dc:type rdf:resource="http://purl.org/dc/dcmitype/StillImage"/>
    <dc:date>2026-09-22T11:26:31.917084</dc:date>
    <dc:format>image/svg+xml</dc:format>
    <dc:creator>
     <cc:Agent>
      <dc:title>Matplotlib v3.11.2, https://matplotlib.org/</dc:title>
     </cc:Agent>
    </dc:creator>
   </cc:Work>
  </rdf:RDF>
 </metadata>
 <defs>
  <style type="text/css">*{stroke-linejoin: round; stroke-linecap: butt}</style>
 </defs>
 <g id="figure_1">
  <g id="patch_1">
   <path d="M 0 429.047111 
L 728.39952 429.047111 
L 728.39952 0 
L 0 0 
z
" style="fill: #ffffff"/>
  </g>
  <g id="axes_1">
   <g id="patch_2">
    <path d="M 133.1625 327.40009 
L 721.19952 327.40009 
L 721.19952 51.158365 
L 133.1625 51.158365 
z
" style="fill: #ffffff"/>
   </g>
   <g id="matplotlib.axis_1">
    <g id="xtick_1">
     <g id="line2d_1">
      <path d="M 133.1625 327.40009 
L 133.1625 51.158365 
" clip-path="url(#p6b114df725)" style="fill: none; stroke: #b0b0b0; stroke-opacity: 0.15; stroke-width: 0.8; stroke-linecap: square"/>
     </g>
     <g id="line2d_2">
      <defs>
       <path id="m24706e03d3" d="M 0 0 
L 0 3.5 
" style="stroke: #000000; stroke-width: 0.8"/>
      </defs>
      <g>
       <use xlink:href="#m24706e03d3" x="133.1625" y="327.40009" style="stroke: #000000; stroke-width: 0.8"/>
      </g>
     </g>
     <g id="text_1">
      <text style="font-size: 10px; font-family: 'DejaVu Sans'; text-anchor: middle" x="133.1625" y="341.997746" transform="rotate(-0 133.1625 341.997746)">0%</text>
     </g>
    </g>
    <g id="xtick_2">
     <g id="line2d_3">
      <path d="M 260.996635 327.40009 
L 260.996635 51.158365 
" clip-path="url(#p6b114df725)" style="fill: none; stroke: #b0b0b0; stroke-opacity: 0.15; stroke-width: 0.8; stroke-linecap: square"/>
     </g>
     <g id="line2d_4">
      <g>
       <use xlink:href="#m24706e03d3" x="260.996635" y="327.40009" style="stroke: #000000; stroke-width: 0.8"/>
      </g>
     </g>
     <g id="text_2">
      <text style="font-size: 10px; font-family: 'DejaVu Sans'; text-anchor: middle" x="260.996635" y="341.997746" transform="rotate(-0 260.996635 341.997746)">25%</text>
     </g>
    </g>
    <g id="xtick_3">
     <g id="line2d_5">
      <path d="M 388.83077 327.40009 
L 388.83077 51.158365 
" clip-path="url(#p6b114df725)" style="fill: none; stroke: #b0b0b0; stroke-opacity: 0.15; stroke-width: 0.8; stroke-linecap: square"/>
     </g>
     <g id="line2d_6">
      <g>
       <use xlink:href="#m24706e03d3" x="388.83077" y="327.40009" style="stroke: #000000; stroke-width: 0.8"/>
      </g>
     </g>
     <g id="text_3">
      <text style="font-size: 10px; font-family: 'DejaVu Sans'; text-anchor: middle" x="388.83077" y="341.997746" transform="rotate(-0 388.83077 341.997746)">50%</text>
     </g>
    </g>
    <g id="xtick_4">
     <g id="line2d_7">
      <path d="M 516.664904 327.40009 
L 516.664904 51.158365 
" clip-path="url(#p6b114df725)" style="fill: none; stroke: #b0b0b0; stroke-opacity: 0.15; stroke-width: 0.8; stroke-linecap: square"/>
     </g>
     <g id="line2d_8">
      <g>
       <use xlink:href="#m24706e03d3" x="516.664904" y="327.40009" style="stroke: #000000; stroke-width: 0.8"/>
      </g>
     </g>
     <g id="text_4">
      <text style="font-size: 10px; font-family: 'DejaVu Sans'; text-anchor: middle" x="516.664904" y="341.997746" transform="rotate(-0 516.664904 341.997746)">75%</text>
     </g>
    </g>
    <g id="xtick_5">
     <g id="line2d_9">
      <path d="M 644.499039 327.40009 
L 644.499039 51.158365 
" clip-path="url(#p6b114df725)" style="fill: none; stroke: #b0b0b0; stroke-opacity: 0.15; stroke-width: 0.8; stroke-linecap: square"/>
     </g>
     <g id="line2d_10">
      <g>
       <use xlink:href="#m24706e03d3" x="644.499039" y="327.40009" style="stroke: #000000; stroke-width: 0.8"/>
      </g>
     </g>
     <g id="text_5">
      <text style="font-size: 10px; font-family: 'DejaVu Sans'; text-anchor: middle" x="644.499039" y="341.997746" transform="rotate(-0 644.499039 341.997746)">100%</text>
     </g>
    </g>
    <g id="text_6">
     <text style="font-size: 10px; font-family: 'DejaVu Sans'; text-anchor: middle" x="427.18101" y="355.998527" transform="rotate(-0 427.18101 355.998527)">Tasks passing independent output checks; all selected failures retained</text>
    </g>
   </g>
   <g id="matplotlib.axis_2">
    <g id="ytick_1">
     <g id="line2d_11">
      <defs>
       <path id="m7bad44d39c" d="M 0 0 
L -3.5 0 
" style="stroke: #000000; stroke-width: 0.8"/>
      </defs>
      <g>
       <use xlink:href="#m7bad44d39c" x="133.1625" y="82.868702" style="stroke: #000000; stroke-width: 0.8"/>
      </g>
     </g>
     <g id="text_7">
      <text style="font-size: 10px; font-family: 'DejaVu Sans'; text-anchor: end" x="126.1625" y="86.66792" transform="rotate(-0 126.1625 86.66792)">psf/black</text>
     </g>
    </g>
    <g id="ytick_2">
     <g id="line2d_12">
      <g>
       <use xlink:href="#m7bad44d39c" x="133.1625" y="136.073965" style="stroke: #000000; stroke-width: 0.8"/>
      </g>
     </g>
     <g id="text_8">
      <text style="font-size: 10px; font-family: 'DejaVu Sans'; text-anchor: end" x="126.1625" y="139.873183" transform="rotate(-0 126.1625 139.873183)">pre-commit/pre-commit</text>
     </g>
    </g>
    <g id="ytick_3">
     <g id="line2d_13">
      <g>
       <use xlink:href="#m7bad44d39c" x="133.1625" y="189.279227" style="stroke: #000000; stroke-width: 0.8"/>
      </g>
     </g>
     <g id="text_9">
      <text style="font-size: 10px; font-family: 'DejaVu Sans'; text-anchor: end" x="126.1625" y="193.078446" transform="rotate(-0 126.1625 193.078446)">prettier/prettier</text>
     </g>
    </g>
    <g id="ytick_4">
     <g id="line2d_14">
      <g>
       <use xlink:href="#m7bad44d39c" x="133.1625" y="242.48449" style="stroke: #000000; stroke-width: 0.8"/>
      </g>
     </g>
     <g id="text_10">
      <text style="font-size: 10px; font-family: 'DejaVu Sans'; text-anchor: end" x="126.1625" y="246.283709" transform="rotate(-0 126.1625 246.283709)">junegunn/fzf</text>
     </g>
    </g>
    <g id="ytick_5">
     <g id="line2d_15">
      <g>
       <use xlink:href="#m7bad44d39c" x="133.1625" y="295.689753" style="stroke: #000000; stroke-width: 0.8"/>
      </g>
     </g>
     <g id="text_11">
      <text style="font-size: 10px; font-family: 'DejaVu Sans'; text-anchor: end" x="126.1625" y="299.488972" transform="rotate(-0 126.1625 299.488972)">cli/cli</text>
     </g>
    </g>
   </g>
   <g id="patch_3">
    <path d="M 133.1625 63.714807 
L 593.365385 63.714807 
L 593.365385 75.419965 
L 133.1625 75.419965 
z
" clip-path="url(#p6b114df725)" style="fill: #94a3b8"/>
   </g>
   <g id="patch_4">
    <path d="M 133.1625 116.92007 
L 644.499039 116.92007 
L 644.499039 128.625228 
L 133.1625 128.625228 
z
" clip-path="url(#p6b114df725)" style="fill: #94a3b8"/>
   </g>
   <g id="patch_5">
    <path d="M 133.1625 170.125333 
L 133.1625 170.125333 
L 133.1625 181.830491 
L 133.1625 181.830491 
z
" clip-path="url(#p6b114df725)" style="fill: #94a3b8"/>
   </g>
   <g id="patch_6">
    <path d="M 133.1625 223.330596 
L 644.499039 223.330596 
L 644.499039 235.035753 
L 133.1625 235.035753 
z
" clip-path="url(#p6b114df725)" style="fill: #94a3b8"/>
   </g>
   <g id="patch_7">
    <path d="M 133.1625 276.535859 
L 133.1625 276.535859 
L 133.1625 288.241016 
L 133.1625 288.241016 
z
" clip-path="url(#p6b114df725)" style="fill: #94a3b8"/>
   </g>
   <g id="patch_8">
    <path d="M 133.1625 77.016123 
L 644.499039 77.016123 
L 644.499039 88.721281 
L 133.1625 88.721281 
z
" clip-path="url(#p6b114df725)" style="fill: #3b82f6"/>
   </g>
   <g id="patch_9">
    <path d="M 133.1625 130.221386 
L 644.499039 130.221386 
L 644.499039 141.926543 
L 133.1625 141.926543 
z
" clip-path="url(#p6b114df725)" style="fill: #3b82f6"/>
   </g>
   <g id="patch_10">
    <path d="M 133.1625 183.426648 
L 133.1625 183.426648 
L 133.1625 195.131806 
L 133.1625 195.131806 
z
" clip-path="url(#p6b114df725)" style="fill: #3b82f6"/>
   </g>
   <g id="patch_11">
    <path d="M 133.1625 236.631911 
L 644.499039 236.631911 
L 644.499039 248.337069 
L 133.1625 248.337069 
z
" clip-path="url(#p6b114df725)" style="fill: #3b82f6"/>
   </g>
   <g id="patch_12">
    <path d="M 133.1625 289.837174 
L 133.1625 289.837174 
L 133.1625 301.542332 
L 133.1625 301.542332 
z
" clip-path="url(#p6b114df725)" style="fill: #3b82f6"/>
   </g>
   <g id="patch_13">
    <path d="M 133.1625 90.317438 
L 644.499039 90.317438 
L 644.499039 102.022596 
L 133.1625 102.022596 
z
" clip-path="url(#p6b114df725)" style="fill: #16a34a"/>
   </g>
   <g id="patch_14">
    <path d="M 133.1625 143.522701 
L 644.499039 143.522701 
L 644.499039 155.227859 
L 133.1625 155.227859 
z
" clip-path="url(#p6b114df725)" style="fill: #16a34a"/>
   </g>
   <g id="patch_15">
    <path d="M 133.1625 196.727964 
L 303.608013 196.727964 
L 303.608013 208.433122 
L 133.1625 208.433122 
z
" clip-path="url(#p6b114df725)" style="fill: #16a34a"/>
   </g>
   <g id="patch_16">
    <path d="M 133.1625 249.933227 
L 644.499039 249.933227 
L 644.499039 261.638385 
L 133.1625 261.638385 
z
" clip-path="url(#p6b114df725)" style="fill: #16a34a"/>
   </g>
   <g id="patch_17">
    <path d="M 133.1625 303.13849 
L 644.499039 303.13849 
L 644.499039 314.843648 
L 133.1625 314.843648 
z
" clip-path="url(#p6b114df725)" style="fill: #16a34a"/>
   </g>
   <g id="patch_18">
    <path d="M 133.1625 327.40009 
L 721.19952 327.40009 
" style="fill: none; stroke: #000000; stroke-width: 0.8; stroke-linejoin: miter; stroke-linecap: square"/>
   </g>
   <g id="text_12">
    <text style="font-size: 9px; font-family: 'DejaVu Sans'; text-anchor: start" x="597.365385" y="71.905277" transform="rotate(-0 597.365385 71.905277)">9/10</text>
   </g>
   <g id="text_13">
    <text style="font-size: 9px; font-family: 'DejaVu Sans'; text-anchor: start" x="648.499039" y="125.110539" transform="rotate(-0 648.499039 125.110539)">10/10</text>
   </g>
   <g id="text_14">
    <text style="font-size: 9px; font-family: 'DejaVu Sans'; text-anchor: start" x="137.1625" y="178.315802" transform="rotate(-0 137.1625 178.315802)">0/6</text>
   </g>
   <g id="text_15">
    <text style="font-size: 9px; font-family: 'DejaVu Sans'; text-anchor: start" x="648.499039" y="231.521065" transform="rotate(-0 648.499039 231.521065)">6/6</text>
   </g>
   <g id="text_16">
    <text style="font-size: 9px; font-family: 'DejaVu Sans'; text-anchor: start" x="137.1625" y="284.726328" transform="rotate(-0 137.1625 284.726328)">0/4</text>
   </g>
   <g id="text_17">
    <text style="font-size: 9px; font-family: 'DejaVu Sans'; text-anchor: start" x="648.499039" y="85.206592" transform="rotate(-0 648.499039 85.206592)">10/10</text>
   </g>
   <g id="text_18">
    <text style="font-size: 9px; font-family: 'DejaVu Sans'; text-anchor: start" x="648.499039" y="138.411855" transform="rotate(-0 648.499039 138.411855)">10/10</text>
   </g>
   <g id="text_19">
    <text style="font-size: 9px; font-family: 'DejaVu Sans'; text-anchor: start" x="137.1625" y="191.617118" transform="rotate(-0 137.1625 191.617118)">0/6</text>
   </g>
   <g id="text_20">
    <text style="font-size: 9px; font-family: 'DejaVu Sans'; text-anchor: start" x="648.499039" y="244.822381" transform="rotate(-0 648.499039 244.822381)">6/6</text>
   </g>
   <g id="text_21">
    <text style="font-size: 9px; font-family: 'DejaVu Sans'; text-anchor: start" x="137.1625" y="298.027644" transform="rotate(-0 137.1625 298.027644)">0/4</text>
   </g>
   <g id="text_22">
    <text style="font-size: 9px; font-family: 'DejaVu Sans'; text-anchor: start" x="648.499039" y="98.507908" transform="rotate(-0 648.499039 98.507908)">10/10</text>
   </g>
   <g id="text_23">
    <text style="font-size: 9px; font-family: 'DejaVu Sans'; text-anchor: start" x="648.499039" y="151.713171" transform="rotate(-0 648.499039 151.713171)">10/10</text>
   </g>
   <g id="text_24">
    <text style="font-size: 9px; font-family: 'DejaVu Sans'; text-anchor: start" x="307.608013" y="204.918434" transform="rotate(-0 307.608013 204.918434)">2/6</text>
   </g>
   <g id="text_25">
    <text style="font-size: 9px; font-family: 'DejaVu Sans'; text-anchor: start" x="648.499039" y="258.123697" transform="rotate(-0 648.499039 258.123697)">6/6</text>
   </g>
   <g id="text_26">
    <text style="font-size: 9px; font-family: 'DejaVu Sans'; text-anchor: start" x="648.499039" y="311.328959" transform="rotate(-0 648.499039 311.328959)">4/4</text>
   </g>
   <g id="text_27">
    <text style="font-weight: 700; font-size: 12px; font-family: 'DejaVu Sans'; text-anchor: start" x="133.1625" y="35.158365" transform="rotate(-0 133.1625 35.158365)">Generated invocations on the same 36 tasks</text>
   </g>
   <g id="legend_1">
    <g id="patch_19">
     <path d="M 335.80601 385.443204 
L 355.80601 385.443204 
L 355.80601 378.443204 
L 335.80601 378.443204 
z
" style="fill: #94a3b8"/>
    </g>
    <g id="text_28">
     <text style="font-size: 10px; font-family: 'DejaVu Sans'; text-anchor: start" x="363.80601" y="385.443204" transform="rotate(-0 363.80601 385.443204)">Previous run · standard budget</text>
    </g>
    <g id="patch_20">
     <path d="M 335.80601 400.443986 
L 355.80601 400.443986 
L 355.80601 393.443986 
L 335.80601 393.443986 
z
" style="fill: #3b82f6"/>
    </g>
    <g id="text_29">
     <text style="font-size: 10px; font-family: 'DejaVu Sans'; text-anchor: start" x="363.80601" y="400.443986" transform="rotate(-0 363.80601 400.443986)">Current · standard budget</text>
    </g>
    <g id="patch_21">
     <path d="M 335.80601 415.444767 
L 355.80601 415.444767 
L 355.80601 408.444767 
L 335.80601 408.444767 
z
" style="fill: #16a34a"/>
    </g>
    <g id="text_30">
     <text style="font-size: 10px; font-family: 'DejaVu Sans'; text-anchor: start" x="363.80601" y="415.444767" transform="rotate(-0 363.80601 415.444767)">Current · expanded budget</text>
    </g>
   </g>
  </g>
  <g id="text_31">
   <text style="font-size: 10px; font-family: 'DejaVu Sans'; text-anchor: middle" x="364.19976" y="14.798437" transform="rotate(-0 364.19976 14.798437)">Structured inputs, fixed source commits and oracles. Not Agent trials.</text>
  </g>
 </g>
 <defs>
  <clipPath id="p6b114df725">
   <rect x="133.1625" y="51.158365" width="588.03702" height="276.241725"/>
  </clipPath>
 </defs>
</svg>
